# xmcd
#
# Track frame offsets:
#       150
#       11287
#       24002
#       32802
#       43532
#       58685
#       71955
#       81685
#       91550
#       102500
#       109047
#       119000
#       125680
#       135437
#       148387
#       158572
#       173002
#       182927
#       192855
#       204137
#       212012
#       217550
#
# Disc length: 3135 seconds
#
# Revision: 3
# Processed by: cddbd v1.5.2PL0 Copyright (c) Steve Scherf et al.
# Submitted via: FreeDbEdit v0.1
#
DISCID=300c3d16
DTITLE=Various Artist - A Country Christmas, Volume 3 (Reader's Digest)
DYEAR=1900
DGENRE=Christmas
TTITLE0=Hank Snow - Rudolph the Red Nosed Reindeer
TTITLE1=The Judds - Santa Claus Is Comin' to Town
TTITLE2=Elvis Presley - Here Comes Santa Claus
TTITLE3=Danny Davis and the Nashville Brass - Jingle Bell Rock
TTITLE4=Glen Campbell - Christmas Is for Children
TTITLE5=The Statler Brothers - Jingle Bells
TTITLE6=Eddie Rabbitt - Rockin' Around the Christmas Tree
TTITLE7=Rita Remmington - I Saw Mommy Kissing Santa Claus
TTITLE8=Jim Reeves - Senor Santa Claus
TTITLE9=Larry Gatlin and the Gatlin Brothers - Joy to the World
TTITLE10=Danny Davis and the Nashville Brass - Do You Hear What I Hear?
TTITLE11=Tennessee Ernie Ford - Hark! The Herald Angels Sing
TTITLE12=The Fireside Singers - We Wish You a Merry Christmas
TTITLE13=Anne Murray - Go Tell It on the Mountain
TTITLE14=Tennessee Ernie Ford - We Three Kings of Orient Are
TTITLE15=Don Williams - Adeste Fidelis {O Come, All Ye Faithful}
TTITLE16=Eddy Arnold - It Came Upon the Midnight Clear
TTITLE17=Tennessee Ernie Ford - God Rest Ye Merry, Gentlemen
TTITLE18=Burl Ives - I Saw Three Ships
TTITLE19=Baillie and the Boys - In a Manger
TTITLE20=Chet Atkins - Deck the Halls
TTITLE21=Tennessee Ernie Ford - The Twelve Days of Christmas
EXTD=Reader's Digest Collection [CD3 of 3)
EXTT0=
EXTT1=
EXTT2=
EXTT3=
EXTT4=
EXTT5=
EXTT6=
EXTT7=
EXTT8=
EXTT9=
EXTT10=
EXTT11=
EXTT12=
EXTT13=
EXTT14=
EXTT15=
EXTT16=
EXTT17=
EXTT18=
EXTT19=
EXTT20=
EXTT21=
PLAYORDER=
